Coordinates
version=1
nRows=17
nColumns=24
inDegrees=yes

Units are S.I. units (second, meters, Newtons, ...)
Angles are in degrees.

endheader
time	pelvis_tilt	pelvis_list	pelvis_rotation	pelvis_tx	pelvis_ty	pelvis_tz	hip_flexion_r	hip_adduction_r	hip_rotation_r	knee_angle_r	ankle_angle_r	subtalar_angle_r	mtp_angle_r	hip_flexion_l	hip_adduction_l	hip_rotation_l	knee_angle_l	ankle_angle_l	subtalar_angle_l	mtp_angle_l	lumbar_extension	lumbar_bending	lumbar_rotation
      0.97500000	      5.13079213	     -3.36683538	     -1.46408183	     -0.33662298	      1.08119067	      0.35053448	     -0.75130246	      8.63627161	     -8.92807942	     -6.97607930	      0.77415419	     -4.39327564	      1.44332196	      7.88566318	     -5.50526552	     -1.63233281	    -60.12187475	      1.09876722	      0.58623486	      7.40515815	      1.20973193	      7.94129254	     -0.21339756
      0.97916667	      5.13084543	     -3.33723455	     -1.56724587	     -0.33200262	      1.08157329	      0.35096075	     -1.15631348	      8.64703732	     -8.66796265	     -6.71532872	      0.78184313	     -4.55249244	      1.44959643	      8.36161155	     -5.41370451	     -1.49589623	    -59.71199620	      1.54964194	      0.06565639	      7.31038650	      1.16270511	      7.88482999	     -0.07332904
      0.98333333	      5.12868941	     -3.30315007	     -1.67665097	     -0.32737430	      1.08194476	      0.35138443	     -1.56115553	      8.65083829	     -8.40119870	     -6.45602752	      0.78913930	     -4.72784758	      1.45481993	      8.82437615	     -5.31628559	     -1.36992123	    -59.25606358	      1.98611136	     -0.49293650	      7.20547224	      1.12131698	      7.83293372	      0.07199382
      0.98750000	      5.08535808	     -3.26723712	     -1.86508827	     -0.32286768	      1.08223639	      0.35192064	     -1.91078471	      8.65282138	     -7.97880305	     -6.21106407	      0.70335614	     -5.21015027	      1.46731300	      9.31534446	     -5.23159806	     -1.33525245	    -58.74494122	      2.18487400	     -1.27394483	      6.84510081	      1.00674652	      7.85673771	      0.43472002
      0.99166667	      5.08493647	     -3.21556414	     -1.95995233	     -0.31822573	      1.08257100	      0.35228058	     -2.31097804	      8.62829716	     -7.80704250	     -5.96259650	      0.74978473	     -5.30516218	      1.47253839	      9.75068387	     -5.10736078	     -1.19449056	    -58.19904399	      2.67068532	     -1.73243753	      6.70861235	      1.01988905	      7.76119427	      0.53949701
      0.99583333	      5.06563804	     -3.18785897	     -1.99792575	     -0.31364058	      1.08281903	      0.35266554	     -2.70265641	      8.64525183	     -7.56650435	     -5.67441006	      0.79079962	     -5.35227767	      1.47538226	     10.22063136	     -5.01664174	     -1.00270564	    -57.63405620	      3.00422985	     -2.16068267	      6.61864589	      1.02504873	      7.67600296	      0.62111287
      1.00000000	      5.03483605	     -3.13928004	     -2.09796940	     -0.30905182	      1.08305209	      0.35301936	     -3.06913955	      8.62268550	     -7.32674033	     -5.42474807	      0.83998879	     -5.48795887	      1.47609595	     10.67129394	     -4.89763604	     -0.87707352	    -57.01413722	      3.39879780	     -2.76836018	      6.50866958	      1.02723763	      7.59100054	      0.71619716
      1.00416667	      4.99618610	     -3.09557104	     -2.21059511	     -0.30449564	      1.08325175	      0.35340959	     -3.42425027	      8.60525146	     -7.06687885	     -5.17820183	      0.87428556	     -5.66920454	      1.47486484	     11.11982550	     -4.79221793	     -0.77474221	    -56.35295718	      3.70075442	     -3.43687722	      6.36628437	      1.01909158	      7.52332648	      0.83194217
      1.00833333	      4.95523191	     -3.05384814	     -2.29729024	     -0.29994886	      1.08340857	      0.35376895	     -3.77751747	      8.59295611	     -6.82095893	     -4.92383802	      0.90690297	     -5.83621159	      1.47224493	     11.56474074	     -4.68698384	     -0.65110307	    -55.65305354	      3.94148698	     -4.02865372	      6.22848767	      1.02247811	      7.45873485	      0.94348247
      1.01250000	      4.91066752	     -3.00843046	     -2.39238243	     -0.29540503	      1.08354209	      0.35410948	     -4.12298501	      8.57042437	     -6.58318829	     -4.67889659	      0.94340983	     -6.00789861	      1.46815131	     11.99914343	     -4.57878515	     -0.54316710	    -54.91316842	      4.17863580	     -4.63669111	      6.08634510	      1.02475979	      7.38615147	      1.05383869
      1.01666667	      4.86706656	     -2.96361402	     -2.48371096	     -0.29088068	      1.08364032	      0.35447480	     -4.46753755	      8.55060823	     -6.34948109	     -4.43502538	      0.98206507	     -6.17995943	      1.46258305	     12.42043172	     -4.47697175	     -0.43728589	    -54.13284716	      4.38232936	     -5.25034767	      5.93526343	      1.02926400	      7.32520127	      1.16326475
      1.02083333	      4.80972601	     -2.91902933	     -2.56796291	     -0.28635369	      1.08369283	      0.35480976	     -4.79770654	      8.53043364	     -6.11505380	     -4.18633905	      1.02502009	     -6.35596131	      1.45536471	     12.84738403	     -4.37302611	     -0.33280475	    -53.31884235	      4.55990792	     -5.87351269	      5.77436233	      1.04778501	      7.25193560	      1.27522569
      1.02500000	      4.75261075	     -2.88296450	     -2.65518813	     -0.28183428	      1.08371826	      0.35511779	     -5.12478041	      8.51376118	     -5.88433146	     -3.94983287	      1.06783999	     -6.54521092	      1.44586206	     13.26084175	     -4.28037103	     -0.23612108	    -52.46912850	      4.70135388	     -6.52090213	      5.59120553	      1.06464994	      7.20340810	      1.38597148
      1.02916667	      4.67168025	     -2.85869832	     -2.78488435	     -0.27743469	      1.08367542	      0.35549404	     -5.41650776	      8.50878797	     -5.55512394	     -3.72175623	      1.03588150	     -6.90419630	      1.41563655	     13.69190002	     -4.21578485	     -0.19749761	    -51.57307280	      4.52525519	     -7.37215073	      5.08286211	      0.98786132	      7.22761366	      1.59768601
      1.03333333	      4.63447139	     -2.81541513	     -2.80768808	     -0.27283326	      1.08366519	      0.35572004	     -5.77084506	      8.48779044	     -5.45611769	     -3.47065956	      1.10613102	     -6.95582314	      1.40919882	     14.06046428	     -4.10702080	     -0.04788944	    -50.65869872	      4.78901404	     -7.66812402	      4.97281495	      1.06458382	      7.13829990	      1.65287406
      1.03750000	      4.58298473	     -2.78285690	     -2.86343320	     -0.26828032	      1.08360436	      0.35597509	     -6.10647545	      8.47220780	     -5.27547079	     -3.22970720	      1.19034639	     -7.05232664	      1.39914730	     14.42874406	     -4.01794829	      0.05775840	    -49.70991126	      4.99367374	     -8.20517830	      4.81524481	      1.10195299	      7.06360541	      1.71230624
      1.04166667	      4.52417885	     -2.75339695	     -2.92449128	     -0.26374995	      1.08350219	      0.35622012	     -6.43110465	      8.45819499	     -5.08569578	     -2.99296104	      1.26394996	     -7.18684824	      1.38521992	     14.79448554	     -3.93690049	      0.14458955	    -48.72254480	      5.05358953	     -8.80320131	      4.62230335	      1.14146923	      7.01041898	      1.77921288
